<?xml version="1.0" encoding="UTF-8"?>
<svg xmlns="http://www.w3.org/2000/svg" xmlns:xlink="http://www.w3.org/1999/xlink" width="24" height="24" viewBox="0 0 24 24">
<defs>
<g>
<g id="glyph-0-0">
<path d="M 6 -20.113281 C 5.457031 -20.113281 4.957031 -19.980469 4.5 -19.714844 C 4.042969 -19.453125 3.679688 -19.089844 3.40625 -18.625 C 3.136719 -18.160156 3 -17.65625 3 -17.113281 L 3 -1.128906 C 3 -0.585938 3.136719 -0.0859375 3.40625 0.371094 C 3.679688 0.828125 4.042969 1.191406 4.5 1.464844 C 4.957031 1.734375 5.457031 1.871094 6 1.871094 L 18 1.871094 C 18.542969 1.871094 19.042969 1.734375 19.5 1.464844 C 19.957031 1.191406 20.320312 0.828125 20.59375 0.371094 C 20.863281 -0.0859375 21 -0.585938 21 -1.128906 L 21 -17.113281 C 21 -17.65625 20.863281 -18.160156 20.59375 -18.625 C 20.320312 -19.089844 19.957031 -19.453125 19.5 -19.714844 C 19.042969 -19.980469 18.542969 -20.113281 18 -20.113281 Z M 19.511719 -1.128906 C 19.511719 -0.710938 19.363281 -0.355469 19.066406 -0.0585938 C 18.773438 0.234375 18.414062 0.382812 18 0.382812 L 6 0.382812 C 5.585938 0.382812 5.230469 0.234375 4.945312 -0.0585938 C 4.65625 -0.355469 4.511719 -0.710938 4.511719 -1.128906 L 4.511719 -17.113281 C 4.511719 -17.527344 4.65625 -17.882812 4.945312 -18.179688 C 5.230469 -18.476562 5.585938 -18.625 6 -18.625 L 18 -18.625 C 18.414062 -18.625 18.773438 -18.476562 19.066406 -18.179688 C 19.363281 -17.882812 19.511719 -17.527344 19.511719 -17.113281 Z M 7.511719 -14.855469 C 7.304688 -14.855469 7.128906 -14.785156 6.984375 -14.640625 C 6.839844 -14.496094 6.769531 -14.320312 6.769531 -14.113281 C 6.769531 -13.902344 6.839844 -13.726562 6.984375 -13.585938 C 7.128906 -13.441406 7.304688 -13.367188 7.511719 -13.367188 L 16.464844 -13.367188 C 16.671875 -13.367188 16.847656 -13.441406 16.992188 -13.585938 C 17.136719 -13.726562 17.207031 -13.902344 17.207031 -14.113281 C 17.207031 -14.320312 17.136719 -14.496094 16.992188 -14.640625 C 16.847656 -14.785156 16.671875 -14.855469 16.464844 -14.855469 Z M 7.511719 -9.839844 C 7.304688 -9.839844 7.128906 -9.769531 6.984375 -9.625 C 6.839844 -9.480469 6.769531 -9.304688 6.769531 -9.097656 C 6.769531 -8.886719 6.839844 -8.710938 6.984375 -8.566406 C 7.128906 -8.425781 7.304688 -8.351562 7.511719 -8.351562 L 16.464844 -8.351562 C 16.671875 -8.351562 16.847656 -8.425781 16.992188 -8.566406 C 17.136719 -8.710938 17.207031 -8.886719 17.207031 -9.097656 C 17.207031 -9.304688 17.136719 -9.480469 16.992188 -9.625 C 16.847656 -9.769531 16.671875 -9.839844 16.464844 -9.839844 Z M 7.511719 -4.871094 C 7.304688 -4.871094 7.128906 -4.796875 6.984375 -4.644531 C 6.839844 -4.492188 6.769531 -4.3125 6.769531 -4.105469 C 6.769531 -3.894531 6.839844 -3.71875 6.984375 -3.574219 C 7.128906 -3.433594 7.304688 -3.359375 7.511719 -3.359375 L 11.976562 -3.359375 C 12.183594 -3.359375 12.359375 -3.433594 12.503906 -3.574219 C 12.648438 -3.71875 12.71875 -3.894531 12.71875 -4.105469 C 12.71875 -4.3125 12.652344 -4.492188 12.515625 -4.644531 C 12.378906 -4.796875 12.207031 -4.871094 12 -4.871094 Z M 7.511719 -4.871094 "/>
</g>
</g>
</defs>
<g fill="rgb(9.803922%, 9.803922%, 9.803922%)" fill-opacity="1">
<use xlink:href="#glyph-0-0" x="0" y="21.125"/>
</g>
</svg>
