<?xml version="1.0" encoding="UTF-8"?>
<svg xmlns="http://www.w3.org/2000/svg" xmlns:xlink="http://www.w3.org/1999/xlink" width="24" height="24" viewBox="0 0 24 24">
<defs>
<g>
<g id="glyph-0-0">
<path d="M 7.488281 -18.648438 C 7.375 -18.742188 7.246094 -18.792969 7.105469 -18.792969 C 6.960938 -18.792969 6.832031 -18.742188 6.71875 -18.648438 L 4.054688 -15.960938 C 3.945312 -15.847656 3.886719 -15.71875 3.886719 -15.574219 C 3.886719 -15.433594 3.945312 -15.304688 4.054688 -15.191406 L 5.664062 -13.585938 C 5.726562 -13.519531 5.800781 -13.488281 5.878906 -13.488281 C 5.960938 -13.488281 6.023438 -13.519531 6.070312 -13.585938 L 9.097656 -16.609375 C 9.160156 -16.671875 9.191406 -16.742188 9.191406 -16.824219 C 9.191406 -16.902344 9.160156 -16.96875 9.097656 -17.015625 Z M 8.328125 -10.921875 C 8.441406 -10.824219 8.566406 -10.777344 8.710938 -10.777344 C 8.855469 -10.777344 8.984375 -10.824219 9.097656 -10.921875 L 11.761719 -13.609375 C 11.871094 -13.71875 11.929688 -13.847656 11.929688 -13.992188 C 11.929688 -14.136719 11.871094 -14.265625 11.761719 -14.375 L 10.152344 -15.984375 C 10.089844 -16.046875 10.015625 -16.078125 9.9375 -16.078125 C 9.855469 -16.078125 9.785156 -16.046875 9.71875 -15.984375 L 6.71875 -12.960938 C 6.65625 -12.894531 6.625 -12.828125 6.625 -12.757812 C 6.625 -12.683594 6.65625 -12.617188 6.71875 -12.550781 Z M 17.28125 -8.855469 C 17.167969 -8.953125 17.035156 -9 16.882812 -9 C 16.730469 -9 16.609375 -8.945312 16.511719 -8.832031 L 13.824219 -6.167969 C 13.710938 -6.054688 13.65625 -5.929688 13.65625 -5.785156 C 13.65625 -5.640625 13.710938 -5.511719 13.824219 -5.398438 L 15.457031 -3.792969 C 15.503906 -3.726562 15.566406 -3.695312 15.648438 -3.695312 C 15.726562 -3.695312 15.800781 -3.726562 15.863281 -3.792969 L 18.886719 -6.816406 C 18.953125 -6.878906 18.984375 -6.953125 18.984375 -7.03125 C 18.984375 -7.113281 18.953125 -7.175781 18.886719 -7.222656 Z M 18.121094 -1.128906 C 18.214844 -1.015625 18.339844 -0.964844 18.492188 -0.972656 C 18.644531 -0.980469 18.777344 -1.039062 18.886719 -1.152344 L 21.550781 -3.816406 C 21.664062 -3.910156 21.71875 -4.035156 21.71875 -4.1875 C 21.71875 -4.339844 21.664062 -4.464844 21.550781 -4.558594 L 19.921875 -6.191406 C 19.871094 -6.257812 19.808594 -6.289062 19.726562 -6.289062 C 19.648438 -6.289062 19.574219 -6.257812 19.511719 -6.191406 L 16.488281 -3.167969 C 16.425781 -3.105469 16.390625 -3.03125 16.390625 -2.953125 C 16.390625 -2.871094 16.425781 -2.808594 16.488281 -2.761719 Z M 16.679688 -11.785156 C 16.664062 -11.816406 16.65625 -11.847656 16.65625 -11.878906 C 16.65625 -11.910156 16.664062 -11.953125 16.679688 -12 C 16.695312 -12.046875 16.777344 -12.144531 16.921875 -12.289062 L 17.089844 -12.457031 C 17.167969 -12.535156 17.207031 -12.636719 17.207031 -12.757812 C 17.207031 -12.875 17.167969 -12.976562 17.089844 -13.054688 L 16.054688 -14.113281 C 15.976562 -14.191406 15.875 -14.230469 15.757812 -14.230469 C 15.636719 -14.230469 15.535156 -14.191406 15.457031 -14.113281 L 15.359375 -14.015625 C 15.199219 -13.855469 15.0625 -13.753906 14.953125 -13.703125 C 14.871094 -13.6875 14.792969 -13.695312 14.710938 -13.726562 C 14.359375 -13.921875 13.988281 -13.988281 13.597656 -13.933594 C 13.203125 -13.875 12.855469 -13.695312 12.550781 -13.390625 L 8.664062 -9.503906 C 8.566406 -9.40625 8.519531 -9.292969 8.519531 -9.15625 C 8.519531 -9.019531 8.566406 -8.902344 8.664062 -8.808594 C 8.9375 -8.808594 9.261719 -8.707031 9.636719 -8.507812 C 10.011719 -8.308594 10.359375 -8.046875 10.679688 -7.726562 C 11.015625 -7.390625 11.273438 -7.050781 11.449219 -6.707031 C 11.625 -6.363281 11.710938 -6.046875 11.710938 -5.761719 C 11.808594 -5.664062 11.9375 -5.605469 12.097656 -5.578125 C 12.257812 -5.554688 12.382812 -5.59375 12.480469 -5.6875 L 16.367188 -9.574219 C 16.65625 -9.863281 16.828125 -10.214844 16.882812 -10.632812 C 16.941406 -11.046875 16.871094 -11.433594 16.679688 -11.785156 Z M 7.679688 0.550781 C 7.921875 0.550781 8.121094 0.484375 8.28125 0.347656 C 8.441406 0.210938 8.519531 0.0390625 8.519531 -0.167969 C 8.503906 -0.375 8.429688 -0.542969 8.292969 -0.671875 C 8.15625 -0.800781 7.992188 -0.863281 7.800781 -0.863281 C 7.238281 -0.847656 6.703125 -0.941406 6.191406 -1.140625 C 5.679688 -1.339844 5.230469 -1.632812 4.847656 -2.015625 C 4.449219 -2.414062 4.148438 -2.867188 3.949219 -3.371094 C 3.746094 -3.875 3.65625 -4.414062 3.671875 -4.992188 C 3.6875 -5.152344 3.644531 -5.296875 3.539062 -5.425781 C 3.4375 -5.550781 3.3125 -5.632812 3.167969 -5.664062 C 3.136719 -5.679688 3.109375 -5.6875 3.085938 -5.6875 C 3.058594 -5.6875 3.03125 -5.6875 3 -5.6875 L 2.855469 -5.6875 C 2.695312 -5.65625 2.558594 -5.574219 2.449219 -5.449219 C 2.335938 -5.320312 2.28125 -5.175781 2.28125 -5.015625 C 2.246094 -4.265625 2.367188 -3.542969 2.640625 -2.855469 C 2.910156 -2.167969 3.320312 -1.558594 3.863281 -1.03125 C 4.359375 -0.519531 4.941406 -0.128906 5.605469 0.144531 C 6.269531 0.414062 6.960938 0.550781 7.679688 0.550781 Z M 8.472656 -1.824219 C 8.695312 -1.824219 8.882812 -1.890625 9.035156 -2.027344 C 9.1875 -2.164062 9.257812 -2.335938 9.238281 -2.542969 C 9.238281 -2.734375 9.171875 -2.894531 9.035156 -3.023438 C 8.898438 -3.152344 8.726562 -3.222656 8.519531 -3.238281 C 8.199219 -3.222656 7.890625 -3.273438 7.597656 -3.382812 C 7.300781 -3.496094 7.03125 -3.671875 6.792969 -3.910156 C 6.328125 -4.40625 6.105469 -4.992188 6.121094 -5.664062 C 6.121094 -5.839844 6.070312 -5.992188 5.976562 -6.121094 C 5.878906 -6.246094 5.753906 -6.328125 5.59375 -6.359375 C 5.558594 -6.375 5.511719 -6.382812 5.449219 -6.382812 C 5.398438 -6.382812 5.351562 -6.382812 5.304688 -6.382812 C 5.144531 -6.367188 5.007812 -6.296875 4.894531 -6.167969 C 4.785156 -6.039062 4.726562 -5.886719 4.726562 -5.710938 C 4.695312 -5.199219 4.777344 -4.699219 4.96875 -4.210938 C 5.160156 -3.722656 5.441406 -3.296875 5.808594 -2.929688 C 6.160156 -2.574219 6.5625 -2.304688 7.019531 -2.113281 C 7.476562 -1.921875 7.960938 -1.824219 8.472656 -1.824219 Z M 10.222656 -7.273438 C 9.742188 -7.753906 9.152344 -8.023438 8.449219 -8.089844 C 7.742188 -8.152344 7.089844 -7.992188 6.480469 -7.609375 C 6.351562 -7.527344 6.28125 -7.40625 6.265625 -7.246094 C 6.246094 -7.089844 6.296875 -6.953125 6.40625 -6.839844 L 9.816406 -3.457031 C 9.929688 -3.34375 10.058594 -3.296875 10.210938 -3.3125 C 10.363281 -3.328125 10.480469 -3.398438 10.558594 -3.527344 C 10.945312 -4.136719 11.109375 -4.789062 11.050781 -5.484375 C 10.996094 -6.179688 10.71875 -6.777344 10.222656 -7.273438 Z M 10.222656 -7.273438 "/>
</g>
</g>
</defs>
<g fill="rgb(9.803922%, 9.803922%, 9.803922%)" fill-opacity="1">
<use xlink:href="#glyph-0-0" x="0" y="21.125"/>
</g>
</svg>
