<?xml version="1.0" encoding="UTF-8"?>
<svg xmlns="http://www.w3.org/2000/svg" xmlns:xlink="http://www.w3.org/1999/xlink" width="24" height="24" viewBox="0 0 24 24">
<defs>
<g>
<g id="glyph-0-0">
<path d="M 5.929688 -19.128906 C 5.222656 -19.128906 4.566406 -18.953125 3.960938 -18.601562 C 3.351562 -18.246094 2.871094 -17.769531 2.519531 -17.160156 C 2.167969 -16.550781 1.992188 -15.894531 1.992188 -15.191406 L 1.992188 -3.070312 C 1.992188 -2.351562 2.167969 -1.6875 2.519531 -1.078125 C 2.871094 -0.472656 3.351562 0.0078125 3.960938 0.359375 C 4.566406 0.710938 5.222656 0.886719 5.929688 0.886719 L 18.070312 0.886719 C 18.777344 0.886719 19.429688 0.710938 20.027344 0.359375 C 20.628906 0.0078125 21.105469 -0.472656 21.457031 -1.078125 C 21.808594 -1.6875 21.984375 -2.351562 21.984375 -3.070312 L 21.984375 -15.191406 C 21.984375 -15.894531 21.808594 -16.550781 21.457031 -17.160156 C 21.105469 -17.769531 20.628906 -18.246094 20.027344 -18.601562 C 19.429688 -18.953125 18.777344 -19.128906 18.070312 -19.128906 Z M 3.503906 -15.191406 C 3.503906 -15.878906 3.738281 -16.457031 4.210938 -16.921875 C 4.683594 -17.382812 5.257812 -17.617188 5.929688 -17.617188 L 18.070312 -17.617188 C 18.742188 -17.617188 19.316406 -17.378906 19.789062 -16.90625 C 20.261719 -16.4375 20.496094 -15.863281 20.496094 -15.191406 L 20.496094 -6.769531 L 16.703125 -10.007812 C 16.257812 -10.40625 15.734375 -10.621094 15.144531 -10.644531 C 14.550781 -10.667969 14.015625 -10.503906 13.535156 -10.152344 L 3.503906 -2.832031 Z M 5.929688 -0.625 C 5.574219 -0.625 5.242188 -0.695312 4.933594 -0.839844 C 4.621094 -0.984375 4.351562 -1.175781 4.128906 -1.414062 L 14.425781 -8.929688 C 14.632812 -9.070312 14.855469 -9.140625 15.097656 -9.132812 C 15.335938 -9.125 15.542969 -9.039062 15.71875 -8.878906 L 20.496094 -4.800781 L 20.496094 -3.070312 C 20.496094 -2.398438 20.261719 -1.824219 19.789062 -1.34375 C 19.316406 -0.863281 18.742188 -0.625 18.070312 -0.625 Z M 6.671875 -10.105469 C 6.816406 -9.960938 6.992188 -9.886719 7.199219 -9.886719 C 7.40625 -9.886719 7.585938 -9.960938 7.726562 -10.105469 L 8.832031 -11.183594 L 9.910156 -10.105469 C 10.054688 -9.960938 10.230469 -9.886719 10.441406 -9.886719 C 10.648438 -9.886719 10.824219 -9.960938 10.96875 -10.105469 C 11.113281 -10.246094 11.183594 -10.425781 11.183594 -10.632812 C 11.183594 -10.839844 11.113281 -11.015625 10.96875 -11.160156 L 9.886719 -12.238281 L 10.96875 -13.34375 C 11.113281 -13.488281 11.183594 -13.664062 11.183594 -13.871094 C 11.183594 -14.078125 11.113281 -14.257812 10.96875 -14.398438 C 10.839844 -14.527344 10.683594 -14.601562 10.5 -14.617188 C 10.316406 -14.632812 10.152344 -14.59375 10.007812 -14.496094 L 8.832031 -13.320312 L 7.726562 -14.398438 C 7.585938 -14.542969 7.40625 -14.617188 7.199219 -14.617188 C 6.992188 -14.617188 6.816406 -14.542969 6.671875 -14.398438 C 6.527344 -14.257812 6.457031 -14.078125 6.457031 -13.871094 C 6.457031 -13.664062 6.527344 -13.488281 6.671875 -13.34375 L 7.753906 -12.238281 L 6.671875 -11.160156 C 6.527344 -11.015625 6.457031 -10.839844 6.457031 -10.632812 C 6.457031 -10.425781 6.527344 -10.246094 6.671875 -10.105469 Z M 6.671875 -10.105469 "/>
</g>
</g>
</defs>
<g fill="rgb(9.803922%, 9.803922%, 9.803922%)" fill-opacity="1">
<use xlink:href="#glyph-0-0" x="0" y="21.125"/>
</g>
</svg>
